inDegrees=no
num_controls=7
num_derivatives=13
num_iterations=96
num_multipliers=7
num_parameters=0
num_slacks=7
num_states=26
objective=0.444908
objective_accelerations=0.058701
objective_balance=0.003815
objective_effort=0.023753
objective_height=0.353136
objective_ligament=0.005501
solver_duration=1420.306123
status=Solve_Succeeded
success=true
DataType=double
version=3
OpenSimVersion=4.5
endheader
time	/jointset/ground_pelvis/pelvis_tilt/value	/jointset/ground_pelvis/pelvis_tx/value	/jointset/ground_pelvis/pelvis_ty/value	/jointset/hip_l/hip_flexion_l/value	/jointset/hip_l/hip_adduction_l/value	/jointset/hip_l/hip_rotation_l/value	/jointset/back/lumbar_extension/value	/jointset/patellofemoral_l/patellar_flexion_l/value	/jointset/knee_l/knee_flexion_l/value	/jointset/knee_l/knee_adduction_l/value	/jointset/knee_l/knee_rotation_l/value	/jointset/ankle_l/ankle_angle_l/value	/jointset/subtalar_l/subtalar_angle_l/value	/jointset/ground_pelvis/pelvis_tilt/speed	/jointset/ground_pelvis/pelvis_tx/speed	/jointset/ground_pelvis/pelvis_ty/speed	/jointset/hip_l/hip_flexion_l/speed	/jointset/hip_l/hip_adduction_l/speed	/jointset/hip_l/hip_rotation_l/speed	/jointset/back/lumbar_extension/speed	/jointset/patellofemoral_l/patellar_flexion_l/speed	/jointset/knee_l/knee_flexion_l/speed	/jointset/knee_l/knee_adduction_l/speed	/jointset/knee_l/knee_rotation_l/speed	/jointset/ankle_l/ankle_angle_l/speed	/jointset/subtalar_l/subtalar_angle_l/speed	/forceset/tau_hip_flexion_l	/forceset/tau_hip_adduction_l	/forceset/tau_hip_rotation_l	/forceset/tau_knee_flexion_l	/forceset/tau_ankle_angle_l	/forceset/tau_subtalar_angle_l	/forceset/tau_lumbar_extension	lambda_cid13_p0	lambda_cid13_p1	lambda_cid13_p2	lambda_cid13_p3	lambda_cid13_p4	lambda_cid13_p5	lambda_cid14_p0	/jointset/ground_pelvis/pelvis_tilt/accel	/jointset/ground_pelvis/pelvis_tx/accel	/jointset/ground_pelvis/pelvis_ty/accel	/jointset/hip_l/hip_flexion_l/accel	/jointset/hip_l/hip_adduction_l/accel	/jointset/hip_l/hip_rotation_l/accel	/jointset/back/lumbar_extension/accel	/jointset/patellofemoral_l/patellar_flexion_l/accel	/jointset/knee_l/knee_flexion_l/accel	/jointset/knee_l/knee_adduction_l/accel	/jointset/knee_l/knee_rotation_l/accel	/jointset/ankle_l/ankle_angle_l/accel	/jointset/subtalar_l/subtalar_angle_l/accel	gamma_cid13_p0	gamma_cid13_p1	gamma_cid13_p2	gamma_cid13_p3	gamma_cid13_p4	gamma_cid13_p5	gamma_cid14_p0
0.5	-0.3571934796459159	-0.0487229753338234	0.7554130477285917	1.133355978966634	-0.4358734646071613	-0.2232959945420339	-0.2546589097483756	0.8076412803920502	0.8076412803920756	-0.1259172589076705	-0.1601569391094519	0.09130819584465864	-0.04038567091684355	-0.8136502465478896	-0.2323754956297329	-0.5481150343290122	2.560533784739123	-0.203110757776013	0.7530499153401097	-0.1139535589865477	1.992075155155322	1.9920751551553	0.1312211727552255	-0.08112348359779942	0.4181373279687731	-0.02043272785314709	-0.175233212777791	0.01341983003543314	-0.01154634419693895	-0.2208030281755392	0.08144937650350748	0.04783554859847287	0.1713853209077852	-6.667867337790667	-22.67641495252025	6.784781362964694	-9.154937896654358	-522.2470313357996	-64.82736418584037	-25.15223906249857	0.8423004009861305	0.6800462729024142	-0.4551181265324679	-1.465928867186831	0.7506572682734148	-0.2213111537949422	1.104275524890154	-1.273065591380338	-1.273065591380363	0.07269808465322666	0.1707537366147426	-0.449192721176599	0.5779569556764996	-5.659898846371842e-07	-4.888257113208829e-07	2.711426857882554e-06	1.361996719392367e-07	-6.313372572192974e-07	1.497003478213646e-07	-4.643898148511718e-07
0.51	-0.3652858443598159	-0.0510124701189413	0.7499103700217926	1.158882963864141	-0.4378682239492646	-0.2157755073559857	-0.2557444987716392	0.827495253370145	0.8274952533701384	-0.1246057175814498	-0.1609592608745619	0.09546590164157738	-0.04056304320802068	-0.8047019584366324	-0.2255057387501765	-0.552300930708005	2.544508350139628	-0.1958257295744956	0.7509516685435128	-0.1032069008606728	1.978448335198046	1.978448335198051	0.1310774007384132	-0.07932960261765011	0.4133302978565647	-0.01505381962682016	-0.1811340743612606	0.01424374213192771	-0.01157536878027686	-0.2232495601097687	0.08086556307761336	0.04820965150235155	0.1758665402417137	-7.07065480091036	-22.74656881757107	6.771071145727537	-9.008387747863038	-526.0475171842456	-64.4046215720323	-24.23280682165496	0.939134967200807	0.6931268760508463	-0.3825121978722314	-1.724157986107782	0.7194454899794541	-0.2188567168059005	1.053462677264747	-1.448063545350527	-1.448063545346484	-0.05934277152654432	0.185948548404871	-0.5074856850220106	0.5158019465033505	-5.519948486486148e-07	-4.127536048690553e-07	2.730603333945139e-06	1.511083350649387e-07	-6.032349068378045e-07	2.188146501171078e-07	-4.575012297705697e-07
0.52	-0.3732851178024026	-0.05323273003914993	0.7443693959903459	1.184239032969698	-0.439789729030575	-0.2082789576927466	-0.2567239008694777	0.8472048434791772	0.8472048434791384	-0.1232958995607332	-0.1617431951759318	0.09957333163161815	-0.04068703757885603	-0.795031992285162	-0.2185285226478806	-0.5557742992585722	2.526350626349055	-0.1884599056174355	0.7482624107783624	-0.09271617390165225	1.963198581342799	1.96319858134283	0.1308765116544778	-0.07744599084990618	0.408082166593194	-0.009757143784790579	-0.1870349359447255	0.0150676542284211	-0.01160439336361655	-0.2256960920439979	0.08028174965171843	0.04858375440622849	0.1803477595756474	-7.476652115659339	-22.81672803844132	6.758011529481641	-8.896181410513661	-529.9276318157204	-64.04154683522417	-23.31466855153594	0.9866360090287745	0.7015381174503232	-0.3126125608473619	-1.89238670540261	0.7668164193819533	-0.3395133475057056	1.05308929151928	-1.59765237097461	-1.597652370974617	0.06127467122861753	0.1886998941336632	-0.5374129514090645	0.5615104788170252	-5.362527519287055e-07	-3.169428548161332e-07	2.761554726697477e-06	1.72702822135121e-07	-5.769117929282034e-07	2.893944920535661e-07	-4.479837688446363e-07
0.53	-0.3811843043280988	-0.05538276660004875	0.7387972608765281	1.209403269120652	-0.4416371547013355	-0.2008120119323331	-0.2575997454047012	0.866754041503899	0.8667540415039421	-0.1219883514567414	-0.1625077318228871	0.1036261771751133	-0.04075840935462226	-0.7846931503606419	-0.2114686390008863	-0.5585304123386914	2.506156061313894	-0.1810165514615684	0.7450204006492864	-0.08251652728843707	1.946383538679088	1.946383538679111	0.1306298556458413	-0.07545981980324599	0.4024191293984913	-0.004533579373859615	-0.1927143182106156	0.01553458552784547	-0.01158548232223726	-0.2283018112475586	0.0798086620242732	0.04887752346833244	0.1846062800795145	-7.846996316871308	-22.85591040281554	6.737349687735951	-8.725497564456104	-533.7370408836101	-63.68402455271641	-22.39939272759777	1.074262655239992	0.7097728770383884	-0.2388766237560298	-2.134154070108318	0.734074999962928	-0.3328719616049752	0.9938332244232013	-1.761964355482119	-1.761964355483428	-0.06807542255402892	0.2043672385394439	-0.5909069050391356	0.5000429936254445	-5.190639999527735e-07	-2.221764386688474e-07	2.781246983198926e-06	1.963227842664007e-07	-5.532632729077499e-07	3.571389995173865e-07	-4.362879542116758e-07
0.54	-0.3889767515603346	-0.05746189244673477	0.7332012114434767	1.234355327087747	-0.4434099508132825	-0.1933807516964103	-0.2583755072981515	0.8861273822737006	0.8861273822738264	-0.1206833578499639	-0.1632522484536555	0.1076203607863535	-0.04077809277200033	-0.773684133593065	-0.2043463798053199	-0.5605571631052768	2.483914989577312	-0.1735339938547469	0.7411253058803532	-0.07269964554719709	1.928027130358864	1.928027130358878	0.1303656122114353	-0.07344198761229485	0.3963497801422582	0.0005805278928441328	-0.1983937004765049	0.0160015168272673	-0.01156657128083687	-0.2309075304511206	0.07933557439682688	0.04917129253043261	0.1888648005833836	-8.221184396763855	-22.89517102735016	6.717560235450101	-8.586790304123179	-537.6346554973906	-63.38657611321328	-21.48988174981722	1.120670977640149	0.7140132271647551	-0.1667400981406174	-2.301688045686978	0.7746571095728382	-0.4701302754772099	0.9765363171242457	-1.905925502277445	-1.905925502277442	0.05775718607474375	0.1950321229918511	-0.6186753637151351	0.5396190499715771	-5.002746932254969e-07	-1.285654557788611e-07	2.788482322997263e-06	2.221836975291075e-07	-5.325738780412469e-07	4.217465411816926e-07	-4.221820461156212e-07
0.55	-0.3966559719027034	-0.05946956702558434	0.7275885518070087	1.259075100076553	-0.4451076793265855	-0.1859913302070405	-0.2590550253570794	0.9053095991406259	0.9053095991407556	-0.1193811534591613	-0.1639761714682628	0.1115519039135434	-0.04074709542802565	-0.7620543404858702	-0.1971852699331423	-0.5618506118964027	2.459710620819205	-0.1660095556782907	0.7366604476724308	-0.06328304564053236	1.908171179433849	1.908171179433789	0.1300656769545744	-0.07133718080913237	0.3898976247498581	0.005598428098734798	-0.2039184430803477	0.01649775488328243	-0.01148739018022646	-0.2335515309076364	0.07895532257493076	0.04913564507199145	0.1929557813520243	-8.568311656681418	-22.78726369177953	6.664208431927531	-8.357553116210356	-541.4437974337379	-62.82831482347165	-20.59097620561181	1.199904023419662	0.7176970298814254	-0.09212868356142045	-2.529238987488467	0.7413124425670639	-0.4497933272435349	0.912359917136941	-2.062106528879183	-2.062106528890271	-0.07523877277604732	0.2195854807201575	-0.6676437274210971	0.4794848982967108	-4.780122068043702e-07	-4.842729061421046e-08	2.769197061646286e-06	2.413609457433406e-07	-5.074014833947604e-07	4.806572328773154e-07	-4.066189514611984e-07
